<mxfile host="Electron" agent="Mozilla/5.0 (Windows NT 10.0; Win64; x64) AppleWebKit/537.36 (KHTML, like Gecko) draw.io/24.7.8 Chrome/128.0.6613.36 Electron/32.0.1 Safari/537.36" version="24.7.8">
  <diagram name="第 1 页" id="qXjcZsHoX8QDfTsZ7KZh">
    <mxGraphModel dx="1420" dy="830" grid="1" gridSize="10" guides="1" tooltips="1" connect="1" arrows="1" fold="1" page="1" pageScale="1" pageWidth="1169" pageHeight="827" math="0" shadow="0">
      <root>
        <mxCell id="0" />
        <mxCell id="1" parent="0" />
        <mxCell id="T_a6b1vDiwAonqnWwLe--24" value="" style="edgeStyle=orthogonalEdgeStyle;shape=connector;curved=0;rounded=1;orthogonalLoop=1;jettySize=auto;html=1;shadow=0;strokeColor=#6c8ebf;strokeWidth=1.9685;align=center;verticalAlign=middle;fontFamily=Helvetica;fontSize=11;fontColor=default;labelBackgroundColor=default;endArrow=classic;fillColor=#dae8fc;" edge="1" parent="1" source="T_a6b1vDiwAonqnWwLe--25" target="T_a6b1vDiwAonqnWwLe--27">
          <mxGeometry relative="1" as="geometry" />
        </mxCell>
        <mxCell id="T_a6b1vDiwAonqnWwLe--25" value="明文" style="rounded=1;whiteSpace=wrap;html=1;fontFamily=Helvetica;fontSize=11;fontColor=default;labelBackgroundColor=default;strokeColor=default;align=center;verticalAlign=middle;fillColor=default;" vertex="1" parent="1">
          <mxGeometry x="370" y="490" width="50" height="30" as="geometry" />
        </mxCell>
        <mxCell id="T_a6b1vDiwAonqnWwLe--26" value="" style="edgeStyle=orthogonalEdgeStyle;shape=connector;curved=0;rounded=1;orthogonalLoop=1;jettySize=auto;html=1;shadow=0;strokeColor=#6c8ebf;strokeWidth=1.9685;align=center;verticalAlign=middle;fontFamily=Helvetica;fontSize=11;fontColor=default;labelBackgroundColor=default;endArrow=classic;fillColor=#dae8fc;" edge="1" parent="1" source="T_a6b1vDiwAonqnWwLe--27" target="T_a6b1vDiwAonqnWwLe--29">
          <mxGeometry relative="1" as="geometry" />
        </mxCell>
        <mxCell id="T_a6b1vDiwAonqnWwLe--27" value="公钥加密" style="whiteSpace=wrap;html=1;fontSize=11;rounded=1;labelBackgroundColor=default;strokeColor=default;align=center;verticalAlign=middle;fontFamily=Helvetica;fontColor=default;fillColor=default;" vertex="1" parent="1">
          <mxGeometry x="458" y="490" width="70" height="30" as="geometry" />
        </mxCell>
        <mxCell id="T_a6b1vDiwAonqnWwLe--28" value="" style="edgeStyle=orthogonalEdgeStyle;shape=connector;curved=0;rounded=1;orthogonalLoop=1;jettySize=auto;html=1;shadow=0;strokeColor=#6c8ebf;strokeWidth=1.9685;align=center;verticalAlign=middle;fontFamily=Helvetica;fontSize=11;fontColor=default;labelBackgroundColor=default;endArrow=classic;fillColor=#dae8fc;" edge="1" parent="1" source="T_a6b1vDiwAonqnWwLe--29" target="T_a6b1vDiwAonqnWwLe--31">
          <mxGeometry relative="1" as="geometry" />
        </mxCell>
        <mxCell id="T_a6b1vDiwAonqnWwLe--29" value="密文" style="whiteSpace=wrap;html=1;fontSize=11;rounded=1;labelBackgroundColor=default;strokeColor=default;align=center;verticalAlign=middle;fontFamily=Helvetica;fontColor=default;fillColor=default;" vertex="1" parent="1">
          <mxGeometry x="565" y="490" width="50" height="30" as="geometry" />
        </mxCell>
        <mxCell id="T_a6b1vDiwAonqnWwLe--30" value="" style="edgeStyle=orthogonalEdgeStyle;shape=connector;curved=0;rounded=1;orthogonalLoop=1;jettySize=auto;html=1;shadow=0;strokeColor=#6c8ebf;strokeWidth=1.9685;align=center;verticalAlign=middle;fontFamily=Helvetica;fontSize=11;fontColor=default;labelBackgroundColor=default;endArrow=classic;fillColor=#dae8fc;" edge="1" parent="1" source="T_a6b1vDiwAonqnWwLe--31" target="T_a6b1vDiwAonqnWwLe--32">
          <mxGeometry relative="1" as="geometry" />
        </mxCell>
        <mxCell id="T_a6b1vDiwAonqnWwLe--31" value="私钥解密" style="whiteSpace=wrap;html=1;fontSize=11;rounded=1;labelBackgroundColor=default;strokeColor=default;align=center;verticalAlign=middle;fontFamily=Helvetica;fontColor=default;fillColor=default;" vertex="1" parent="1">
          <mxGeometry x="653" y="490" width="70" height="30" as="geometry" />
        </mxCell>
        <mxCell id="T_a6b1vDiwAonqnWwLe--32" value="明文" style="whiteSpace=wrap;html=1;fontSize=11;rounded=1;labelBackgroundColor=default;strokeColor=default;align=center;verticalAlign=middle;fontFamily=Helvetica;fontColor=default;fillColor=default;" vertex="1" parent="1">
          <mxGeometry x="760" y="490" width="50" height="30" as="geometry" />
        </mxCell>
        <mxCell id="T_a6b1vDiwAonqnWwLe--33" value="" style="edgeStyle=orthogonalEdgeStyle;shape=connector;curved=0;rounded=1;orthogonalLoop=1;jettySize=auto;html=1;shadow=0;strokeColor=#6c8ebf;strokeWidth=1.9685;align=center;verticalAlign=middle;fontFamily=Helvetica;fontSize=11;fontColor=default;labelBackgroundColor=default;endArrow=classic;fillColor=#dae8fc;" edge="1" parent="1" source="T_a6b1vDiwAonqnWwLe--34" target="T_a6b1vDiwAonqnWwLe--36">
          <mxGeometry relative="1" as="geometry" />
        </mxCell>
        <mxCell id="T_a6b1vDiwAonqnWwLe--34" value="明文" style="rounded=1;whiteSpace=wrap;html=1;fontFamily=Helvetica;fontSize=11;fontColor=default;labelBackgroundColor=default;strokeColor=default;align=center;verticalAlign=middle;fillColor=default;" vertex="1" parent="1">
          <mxGeometry x="370" y="390" width="50" height="30" as="geometry" />
        </mxCell>
        <mxCell id="T_a6b1vDiwAonqnWwLe--35" value="" style="edgeStyle=orthogonalEdgeStyle;shape=connector;curved=0;rounded=1;orthogonalLoop=1;jettySize=auto;html=1;shadow=0;strokeColor=#6c8ebf;strokeWidth=1.9685;align=center;verticalAlign=middle;fontFamily=Helvetica;fontSize=11;fontColor=default;labelBackgroundColor=default;endArrow=classic;fillColor=#dae8fc;" edge="1" parent="1" source="T_a6b1vDiwAonqnWwLe--36" target="T_a6b1vDiwAonqnWwLe--38">
          <mxGeometry relative="1" as="geometry" />
        </mxCell>
        <mxCell id="T_a6b1vDiwAonqnWwLe--36" value="私钥签名" style="whiteSpace=wrap;html=1;fontSize=11;rounded=1;labelBackgroundColor=default;strokeColor=default;align=center;verticalAlign=middle;fontFamily=Helvetica;fontColor=default;fillColor=default;" vertex="1" parent="1">
          <mxGeometry x="458" y="390" width="70" height="30" as="geometry" />
        </mxCell>
        <mxCell id="T_a6b1vDiwAonqnWwLe--37" value="" style="edgeStyle=orthogonalEdgeStyle;shape=connector;curved=0;rounded=1;orthogonalLoop=1;jettySize=auto;html=1;shadow=0;strokeColor=#6c8ebf;strokeWidth=1.9685;align=center;verticalAlign=middle;fontFamily=Helvetica;fontSize=11;fontColor=default;labelBackgroundColor=default;endArrow=classic;fillColor=#dae8fc;" edge="1" parent="1" source="T_a6b1vDiwAonqnWwLe--38" target="T_a6b1vDiwAonqnWwLe--40">
          <mxGeometry relative="1" as="geometry" />
        </mxCell>
        <mxCell id="T_a6b1vDiwAonqnWwLe--38" value="密文" style="whiteSpace=wrap;html=1;fontSize=11;rounded=1;labelBackgroundColor=default;strokeColor=default;align=center;verticalAlign=middle;fontFamily=Helvetica;fontColor=default;fillColor=default;" vertex="1" parent="1">
          <mxGeometry x="565" y="390" width="50" height="30" as="geometry" />
        </mxCell>
        <mxCell id="T_a6b1vDiwAonqnWwLe--39" value="" style="edgeStyle=orthogonalEdgeStyle;shape=connector;curved=0;rounded=1;orthogonalLoop=1;jettySize=auto;html=1;shadow=0;strokeColor=#6c8ebf;strokeWidth=1.9685;align=center;verticalAlign=middle;fontFamily=Helvetica;fontSize=11;fontColor=default;labelBackgroundColor=default;endArrow=classic;fillColor=#dae8fc;" edge="1" parent="1" source="T_a6b1vDiwAonqnWwLe--40" target="T_a6b1vDiwAonqnWwLe--41">
          <mxGeometry relative="1" as="geometry" />
        </mxCell>
        <mxCell id="T_a6b1vDiwAonqnWwLe--40" value="公钥验签" style="whiteSpace=wrap;html=1;fontSize=11;rounded=1;labelBackgroundColor=default;strokeColor=default;align=center;verticalAlign=middle;fontFamily=Helvetica;fontColor=default;fillColor=default;" vertex="1" parent="1">
          <mxGeometry x="653" y="390" width="70" height="30" as="geometry" />
        </mxCell>
        <mxCell id="T_a6b1vDiwAonqnWwLe--41" value="明文" style="whiteSpace=wrap;html=1;fontSize=11;rounded=1;labelBackgroundColor=default;strokeColor=default;align=center;verticalAlign=middle;fontFamily=Helvetica;fontColor=default;fillColor=default;" vertex="1" parent="1">
          <mxGeometry x="760" y="390" width="50" height="30" as="geometry" />
        </mxCell>
        <mxCell id="T_a6b1vDiwAonqnWwLe--42" value="B-&amp;gt;SEND" style="text;html=1;align=left;verticalAlign=middle;resizable=0;points=[];autosize=1;strokeColor=none;fillColor=none;fontSize=16;fontColor=#0070F2;fontFamily=Helvetica;fontStyle=1;rounded=1;" vertex="1" parent="1">
          <mxGeometry x="370" y="350" width="90" height="30" as="geometry" />
        </mxCell>
        <mxCell id="T_a6b1vDiwAonqnWwLe--43" value="A-&amp;gt;SEND" style="text;html=1;align=left;verticalAlign=middle;resizable=0;points=[];autosize=1;strokeColor=none;fillColor=none;fontSize=16;fontColor=#0070F2;fontFamily=Helvetica;fontStyle=1;rounded=1;" vertex="1" parent="1">
          <mxGeometry x="370" y="450" width="90" height="30" as="geometry" />
        </mxCell>
        <mxCell id="T_a6b1vDiwAonqnWwLe--44" value="B-&amp;gt;RECV" style="text;html=1;align=right;verticalAlign=middle;resizable=0;points=[];autosize=1;strokeColor=none;fillColor=none;fontSize=16;fontColor=#0070F2;fontFamily=Helvetica;fontStyle=1;rounded=1;" vertex="1" parent="1">
          <mxGeometry x="720" y="450" width="90" height="30" as="geometry" />
        </mxCell>
        <mxCell id="T_a6b1vDiwAonqnWwLe--45" value="A-&amp;gt;RECV" style="text;html=1;align=right;verticalAlign=middle;resizable=0;points=[];autosize=1;strokeColor=none;fillColor=none;fontSize=16;fontColor=#0070F2;fontFamily=Helvetica;fontStyle=1;rounded=1;" vertex="1" parent="1">
          <mxGeometry x="720" y="350" width="90" height="30" as="geometry" />
        </mxCell>
        <mxCell id="T_a6b1vDiwAonqnWwLe--46" value="B生成公钥" style="text;html=1;align=left;verticalAlign=middle;resizable=0;points=[];autosize=1;strokeColor=none;fillColor=none;fontFamily=Helvetica;fontSize=11;fontColor=default;labelBackgroundColor=none;rounded=1;" vertex="1" parent="1">
          <mxGeometry x="370" y="320" width="70" height="30" as="geometry" />
        </mxCell>
        <mxCell id="T_a6b1vDiwAonqnWwLe--47" value="" style="edgeStyle=orthogonalEdgeStyle;shape=connector;curved=0;rounded=1;orthogonalLoop=1;jettySize=auto;html=1;shadow=0;strokeColor=#b85450;strokeWidth=1.9685;align=center;verticalAlign=middle;fontFamily=Helvetica;fontSize=11;fontColor=default;labelBackgroundColor=none;autosize=1;resizable=0;endArrow=classic;fillColor=#f8cecc;" edge="1" parent="1" source="T_a6b1vDiwAonqnWwLe--50" target="T_a6b1vDiwAonqnWwLe--51">
          <mxGeometry relative="1" as="geometry" />
        </mxCell>
        <mxCell id="T_a6b1vDiwAonqnWwLe--48" value="" style="edgeStyle=orthogonalEdgeStyle;shape=connector;curved=0;rounded=1;orthogonalLoop=1;jettySize=auto;html=1;shadow=0;strokeColor=#b85450;strokeWidth=1.9685;align=center;verticalAlign=middle;fontFamily=Helvetica;fontSize=11;fontColor=default;labelBackgroundColor=none;autosize=1;resizable=0;endArrow=classic;fillColor=#f8cecc;" edge="1" parent="1" source="T_a6b1vDiwAonqnWwLe--50" target="T_a6b1vDiwAonqnWwLe--51">
          <mxGeometry relative="1" as="geometry" />
        </mxCell>
        <mxCell id="T_a6b1vDiwAonqnWwLe--49" style="edgeStyle=orthogonalEdgeStyle;shape=connector;curved=0;rounded=1;orthogonalLoop=1;jettySize=auto;html=1;exitX=0.5;exitY=0;exitDx=0;exitDy=0;entryX=0.5;entryY=1;entryDx=0;entryDy=0;shadow=0;strokeColor=#b85450;strokeWidth=1.9685;align=center;verticalAlign=middle;fontFamily=Helvetica;fontSize=11;fontColor=default;labelBackgroundColor=none;autosize=1;resizable=0;endArrow=classic;fillColor=#f8cecc;" edge="1" parent="1" source="T_a6b1vDiwAonqnWwLe--50" target="T_a6b1vDiwAonqnWwLe--52">
          <mxGeometry relative="1" as="geometry" />
        </mxCell>
        <mxCell id="T_a6b1vDiwAonqnWwLe--50" value="攻击者C" style="whiteSpace=wrap;html=1;fontFamily=Helvetica;fontSize=11;labelBackgroundColor=default;rounded=1;fillColor=#f8cecc;strokeColor=#b85450;" vertex="1" parent="1">
          <mxGeometry x="560" y="270" width="60" height="30" as="geometry" />
        </mxCell>
        <mxCell id="T_a6b1vDiwAonqnWwLe--51" value="C的公钥" style="whiteSpace=wrap;html=1;fontFamily=Helvetica;fontSize=11;labelBackgroundColor=default;rounded=1;fillColor=#f8cecc;strokeColor=#b85450;" vertex="1" parent="1">
          <mxGeometry x="620" y="190" width="60" height="30" as="geometry" />
        </mxCell>
        <mxCell id="T_a6b1vDiwAonqnWwLe--52" value="C的私钥" style="whiteSpace=wrap;html=1;fontFamily=Helvetica;fontSize=11;labelBackgroundColor=default;rounded=1;fillColor=#f8cecc;strokeColor=#b85450;" vertex="1" parent="1">
          <mxGeometry x="500" y="190" width="60" height="30" as="geometry" />
        </mxCell>
        <mxCell id="T_a6b1vDiwAonqnWwLe--53" style="edgeStyle=orthogonalEdgeStyle;shape=connector;curved=1;rounded=1;orthogonalLoop=1;jettySize=auto;html=1;exitX=1;exitY=0;exitDx=0;exitDy=0;entryX=0;entryY=0.5;entryDx=0;entryDy=0;shadow=0;strokeColor=#b85450;strokeWidth=1.9685;align=center;verticalAlign=middle;fontFamily=Helvetica;fontSize=11;fontColor=default;labelBackgroundColor=none;autosize=1;resizable=0;endArrow=classic;fillColor=#f8cecc;" edge="1" parent="1" source="T_a6b1vDiwAonqnWwLe--34" target="T_a6b1vDiwAonqnWwLe--50">
          <mxGeometry relative="1" as="geometry" />
        </mxCell>
        <mxCell id="T_a6b1vDiwAonqnWwLe--54" value="获取B的公钥" style="edgeLabel;html=1;align=center;verticalAlign=middle;resizable=0;points=[];fontFamily=Helvetica;fontSize=11;labelBackgroundColor=default;autosize=1;rounded=1;" vertex="1" connectable="0" parent="T_a6b1vDiwAonqnWwLe--53">
          <mxGeometry x="0.595" y="-4" width="90" height="30" relative="1" as="geometry">
            <mxPoint x="-72" y="-9" as="offset" />
          </mxGeometry>
        </mxCell>
        <mxCell id="T_a6b1vDiwAonqnWwLe--55" style="edgeStyle=orthogonalEdgeStyle;shape=connector;curved=1;rounded=1;orthogonalLoop=1;jettySize=auto;html=1;exitX=1;exitY=0.5;exitDx=0;exitDy=0;entryX=0;entryY=0;entryDx=0;entryDy=0;shadow=0;strokeColor=#b85450;strokeWidth=1.9685;align=center;verticalAlign=middle;fontFamily=Helvetica;fontSize=11;fontColor=default;labelBackgroundColor=none;autosize=1;resizable=0;endArrow=classic;fillColor=#f8cecc;" edge="1" parent="1" source="T_a6b1vDiwAonqnWwLe--50" target="T_a6b1vDiwAonqnWwLe--41">
          <mxGeometry relative="1" as="geometry" />
        </mxCell>
        <mxCell id="T_a6b1vDiwAonqnWwLe--56" value="将自己的公钥给A" style="edgeLabel;html=1;align=center;verticalAlign=middle;resizable=0;points=[];fontFamily=Helvetica;fontSize=11;fontColor=default;labelBackgroundColor=default;autosize=1;fillColor=none;gradientColor=none;rounded=1;" vertex="1" connectable="0" parent="T_a6b1vDiwAonqnWwLe--55">
          <mxGeometry x="-0.3991" y="-9" width="110" height="30" relative="1" as="geometry">
            <mxPoint x="-55" y="-15" as="offset" />
          </mxGeometry>
        </mxCell>
      </root>
    </mxGraphModel>
  </diagram>
</mxfile>
